<svg width="59" height="59" viewBox="0 0 59 59" fill="none" xmlns="http://www.w3.org/2000/svg">
<rect width="59" height="59" rx="9" fill="black"/>
<g clip-path="url(#clip0_1_15)">
<path d="M8 38.1977V34.4676H13.1765V37.3063C13.1765 38.0246 13.651 38.6217 14.4016 39.0631C15.3506 39.6256 16.6965 39.9285 18.1286 39.9285C19.6471 39.9285 20.9412 39.5737 21.8125 38.8987C22.5804 38.3015 23.0376 37.4274 23.0376 36.2937C23.0376 33.6714 20.2941 32.6069 17.2745 31.4299L16.662 31.1876C14.7294 30.4606 12.771 29.6731 11.2525 28.3836C9.67373 27.0422 8.61255 25.1988 8.61255 22.4121C8.61255 19.6686 9.64784 17.6521 11.2871 16.2674C13.1333 14.7097 15.7302 14 18.4565 14C20.8549 14 23.2878 14.4933 25.0565 15.4626C26.7302 16.38 27.8173 17.7127 27.8173 19.4696V23.5631H22.6063V20.8456C22.6063 20.3956 22.218 20.0061 21.64 19.7032C20.7945 19.2619 19.6039 19.0369 18.4565 19.0369C17.1537 19.0369 16.0149 19.3398 15.2384 19.9456C14.5827 20.4562 14.1859 21.2178 14.1859 22.2217C14.1859 24.6709 16.6878 25.6228 19.5263 26.7046L19.7592 26.7912C21.9161 27.6047 24.0557 28.4269 25.7035 29.7596C27.429 31.153 28.5765 33.0656 28.5765 35.9735C28.5765 38.8035 27.4722 41.0017 25.6863 42.5248C23.7624 44.1692 21.062 45 18.1286 45C15.5922 45 12.8831 44.3769 10.9247 43.1133C9.17333 41.9796 8 40.3526 8 38.2063V38.1977ZM32.5796 43.0528C31.32 41.9017 30.5004 40.2487 30.5004 38.0765C30.5004 34.459 32.8471 32.5463 35.6596 31.5338C38.3169 30.5818 41.3796 30.4606 43.1224 30.4606H43.6831V30.426C43.6831 29.1192 43.3553 28.2365 42.8031 27.6826C42.1733 27.0508 41.2071 26.7912 40.0682 26.7912C37.0831 26.7912 34.6675 28.6173 34.6588 28.6259L33.9945 29.1279L31.7082 25.069L32.1914 24.6795C32.2 24.6709 35.3749 22.0918 40.3875 22.0918C43.1914 22.0918 45.3482 22.8448 46.8235 24.3074C48.2988 25.7786 49.058 27.9162 49.058 30.7116V39.8506C49.058 39.9458 49.058 39.9891 49.0667 39.9978C49.0753 40.0064 49.1271 40.0064 49.2133 40.0064H52V44.5067H47.1945C46.142 44.5067 45.3569 44.2384 44.822 43.7624C44.3906 43.3816 44.1231 42.897 44.0024 42.3344C42.8549 43.6153 40.931 44.9913 38.0063 44.9913C36.0133 44.9913 34.0118 44.3596 32.5796 43.0441V43.0528ZM38.8173 34.9869C37.2729 35.4196 35.9184 36.2245 35.9184 37.7563C35.9184 38.5092 36.2031 39.2275 36.738 39.7381C37.2298 40.2055 37.9459 40.4997 38.8518 40.4997C40.2235 40.4997 41.3624 39.8333 42.182 38.864C43.1741 37.6957 43.7176 36.086 43.7176 34.6061V34.4936H43.4416C42.5443 34.4936 40.5427 34.5109 38.8086 34.9955L38.8173 34.9869Z" fill="white"/>
</g>
<defs>
<clipPath id="clip0_1_15">
<rect width="44" height="31" fill="white" transform="translate(8 14)"/>
</clipPath>
</defs>
</svg>
